<svg width="24" height="24" viewBox="0 0 24 24" fill="none" xmlns="http://www.w3.org/2000/svg">
<path d="M16 8.00036V13.0004C16 13.796 16.3161 14.5591 16.8787 15.1217C17.4413 15.6843 18.2043 16.0004 19 16.0004C19.7956 16.0004 20.5587 15.6843 21.1213 15.1217C21.6839 14.5591 22 13.796 22 13.0004V12.0004C21.9999 9.74339 21.2362 7.55284 19.8333 5.78489C18.4303 4.01695 16.4705 2.77558 14.2726 2.26266C12.0747 1.74973 9.76795 1.9954 7.72736 2.95973C5.68678 3.92405 4.03241 5.55032 3.03327 7.57408C2.03413 9.59785 1.74898 11.9001 2.22418 14.1065C2.69938 16.3129 3.90699 18.2936 5.65064 19.7267C7.3943 21.1597 9.57145 21.9607 11.8281 21.9995C14.0847 22.0383 16.2881 21.3126 18.08 19.9404M16 12.0004C16 14.2095 14.2091 16.0004 12 16.0004C9.79088 16.0004 8.00002 14.2095 8.00002 12.0004C8.00002 9.79122 9.79088 8.00036 12 8.00036C14.2091 8.00036 16 9.79122 16 12.0004Z" stroke="black" stroke-width="2" stroke-linecap="round" stroke-linejoin="round"/>
</svg>
