<svg width="394" height="81" viewBox="0 0 394 81" fill="none" xmlns="http://www.w3.org/2000/svg">
<g clip-path="url(#clip0_1518_487)">
<mask id="mask0_1518_487" style="mask-type:luminance" maskUnits="userSpaceOnUse" x="0" y="66" width="180" height="15">
<path d="M0 66.6143H179.807V80.557H0V66.6143Z" fill="white"/>
</mask>
<g mask="url(#mask0_1518_487)">
<path d="M0 66.6143H179.797V80.557H0V66.6143Z" fill="#E1F4F9"/>
</g>
<mask id="mask1_1518_487" style="mask-type:luminance" maskUnits="userSpaceOnUse" x="205" y="2" width="189" height="15">
<path d="M205.953 2.26562H393.938V16.1979H205.953V2.26562Z" fill="white"/>
</mask>
<g mask="url(#mask1_1518_487)">
<path d="M205.953 2.26562H393.953V16.1979H205.953V2.26562Z" fill="#ECFBED"/>
</g>
<path d="M20.375 41.3786C17.1771 41.3786 14.4271 40.8473 12.125 39.7952C9.83333 38.7432 8.0625 37.2484 6.8125 35.3161C5.5625 33.3734 4.9375 31.0973 4.9375 28.4827H13.4167C13.4167 30.29 14.0417 31.7067 15.2917 32.7327C16.5417 33.7484 18.2135 34.2536 20.3125 34.2536C22.1302 34.2536 23.5625 33.8994 24.6042 33.1911C25.6563 32.4827 26.1875 31.4932 26.1875 30.2119C26.1875 28.8786 25.5521 27.7952 24.2917 26.9619C23.026 26.1286 21.0521 25.4202 18.375 24.8369C13.901 23.8942 10.5937 22.4619 8.45833 20.5452C6.33333 18.6286 5.27083 16.1286 5.27083 13.0452C5.27083 9.56087 6.53125 6.81087 9.0625 4.79525C11.6042 2.78483 15.0677 1.77441 19.4583 1.77441C22.4583 1.77441 25.0625 2.29525 27.2708 3.33691C29.4896 4.36816 31.2083 5.81608 32.4167 7.69108C33.6354 9.55566 34.25 11.7692 34.25 14.3369H25.9167C25.9167 12.6442 25.3542 11.3109 24.2292 10.3369C23.1042 9.35254 21.5469 8.85775 19.5625 8.85775C17.7396 8.85775 16.3021 9.21191 15.25 9.92025C14.2083 10.6286 13.6875 11.6182 13.6875 12.8786C13.6875 14.0348 14.2604 15.014 15.4167 15.8161C16.5833 16.6077 18.6146 17.3525 21.5208 18.0452C26.2708 19.1702 29.6927 20.6807 31.7917 22.5661C33.901 24.4411 34.9583 26.889 34.9583 29.8994C34.9583 33.4827 33.6563 36.2952 31.0625 38.3369C28.4635 40.3682 24.901 41.3786 20.375 41.3786Z" fill="#242424"/>
<path d="M53.2158 40.6084V2.5459H60.57L77.3617 25.7126V2.5459H85.945V40.6084H78.6117L61.82 17.2751V40.6084H53.2158Z" fill="#242424"/>
<path d="M154.427 40.6084V2.5459H169.323C172.406 2.5459 175.073 3.1084 177.323 4.2334C179.573 5.3584 181.323 6.95736 182.573 9.02507C183.823 11.0824 184.448 13.5042 184.448 16.2959C184.448 19.0615 183.823 21.4782 182.573 23.5459C181.323 25.6032 179.573 27.1917 177.323 28.3167C175.073 29.4417 172.406 30.0042 169.323 30.0042H163.073V40.6084H154.427ZM163.031 22.5459H168.615C170.865 22.5459 172.594 22.0146 173.802 20.9417C175.021 19.874 175.636 18.348 175.636 16.3584C175.636 14.3584 175.021 12.8167 173.802 11.7334C172.594 10.6501 170.865 10.1084 168.615 10.1084H163.031V22.5459Z" fill="#242424"/>
<path d="M203.888 77.8975V39.835H227.763V47.6683H212.534V57.1891H226.347V64.7933H212.534V77.8975H203.888Z" fill="#242424"/>
<path d="M264.038 78.6676C260.08 78.6676 256.564 77.8291 253.497 76.1468C250.439 74.4541 248.049 72.1208 246.33 69.1468C244.606 66.1781 243.747 62.7458 243.747 58.8551C243.747 54.9801 244.606 51.5583 246.33 48.5843C248.049 45.6156 250.439 43.2874 253.497 41.6051C256.564 39.9124 260.08 39.0635 264.038 39.0635C268.023 39.0635 271.538 39.9124 274.58 41.6051C277.622 43.2874 280.007 45.6156 281.747 48.5843C283.497 51.5583 284.372 54.9801 284.372 58.8551C284.372 62.7458 283.497 66.1781 281.747 69.1468C280.007 72.1208 277.622 74.4541 274.58 76.1468C271.538 77.8291 268.023 78.6676 264.038 78.6676ZM252.559 58.8551C252.559 61.1468 253.043 63.1624 254.017 64.8968C255.002 66.6364 256.356 67.9958 258.08 68.9801C259.799 69.9541 261.788 70.4385 264.038 70.4385C266.314 70.4385 268.314 69.9541 270.038 68.9801C271.757 67.9958 273.101 66.6364 274.059 64.8968C275.017 63.1624 275.497 61.1468 275.497 58.8551C275.497 56.5791 275.017 54.5739 274.059 52.8343C273.101 51.0999 271.757 49.7458 270.038 48.7718C268.314 47.7874 266.314 47.2926 264.038 47.2926C261.788 47.2926 259.799 47.7874 258.08 48.7718C256.356 49.7458 255.002 51.0999 254.017 52.8343C253.043 54.5739 252.559 56.5791 252.559 58.8551Z" fill="#242424"/>
<path d="M302.528 77.8975V39.835H318.799C321.684 39.835 324.2 40.3662 326.34 41.4183C328.476 42.46 330.122 43.96 331.278 45.9183C332.444 47.8766 333.028 50.2204 333.028 52.9391C333.028 55.7308 332.392 58.137 331.132 60.1475C329.866 62.1631 328.09 63.6787 325.799 64.6891L333.694 77.8975H323.694L316.882 66.0433H311.174V77.8975H302.528ZM311.069 58.7516H317.653C319.788 58.7516 321.429 58.262 322.569 57.2725C323.705 56.2725 324.278 54.8506 324.278 53.0016C324.278 51.1579 323.705 49.7308 322.569 48.7308C321.429 47.7308 319.788 47.2308 317.653 47.2308H311.069V58.7516Z" fill="#242424"/>
<path d="M352.065 77.8975V39.835H359.42L372.94 59.5641L386.44 39.835H393.732V77.8975H385.128V55.0016L375.878 68.4808H369.899L360.67 54.96V77.8975H352.065Z" fill="#242424"/>
<mask id="mask2_1518_487" style="mask-type:luminance" maskUnits="userSpaceOnUse" x="100" y="0" width="41" height="47">
<path d="M100.755 0H140.667V46.3021H100.755V0Z" fill="white"/>
</mask>
<g mask="url(#mask2_1518_487)">
<path d="M117.453 0.301944C116.912 0.31236 116.474 0.760278 116.485 1.30194V7.19778C116.479 7.55194 116.662 7.88007 116.969 8.06236C117.276 8.23945 117.656 8.23945 117.964 8.06236C118.271 7.88007 118.453 7.55194 118.448 7.19778V1.30194C118.453 1.03632 118.349 0.775903 118.162 0.588402C117.974 0.400902 117.714 0.296736 117.453 0.301944ZM108.61 3.26028C108.208 3.26028 107.854 3.49986 107.698 3.86965C107.547 4.23944 107.636 4.66132 107.927 4.94257L111.86 8.87486C112.104 9.13007 112.469 9.23424 112.813 9.14569C113.156 9.05715 113.427 8.78632 113.516 8.44257C113.61 8.09882 113.505 7.72903 113.245 7.48424L109.318 3.55194C109.13 3.35924 108.875 3.26028 108.61 3.26028ZM126.292 3.26028C126.037 3.26028 125.792 3.36965 125.615 3.55194L121.688 7.48424C121.427 7.72903 121.323 8.09882 121.417 8.44257C121.505 8.78632 121.776 9.05715 122.12 9.14569C122.464 9.23424 122.828 9.13007 123.073 8.87486L127.005 4.94257C127.297 4.66132 127.386 4.22903 127.224 3.85924C127.068 3.47903 126.698 3.24465 126.292 3.26028ZM136.307 5.22903C135.599 5.22903 134.886 5.50507 134.344 6.04674L115.5 24.8905C115.5 24.8905 112.625 19.479 111.182 18.0363C108.672 15.5207 103.807 14.2915 102.521 15.5728L100.755 17.3384L106.318 22.8957L110.589 35.6978L118.302 43.4165C121.099 46.2134 125.63 46.2134 128.422 43.4165L139.261 32.5832C140.344 31.4947 140.344 29.7394 139.261 28.6509C138.172 27.5624 136.412 27.5624 135.328 28.6509L136.307 27.6665C137.396 26.5832 137.396 24.8228 136.307 23.7394C135.224 22.6509 133.464 22.6509 132.38 23.7394L133.36 22.7551C134.448 21.6665 134.448 19.9113 133.36 18.8228C132.276 17.7342 130.516 17.7342 129.427 18.8228L138.276 9.97903C139.36 8.89049 139.36 7.13007 138.276 6.04674C137.735 5.50507 137.021 5.22903 136.307 5.22903Z" fill="#242424"/>
</g>
</g>
<defs>
<clipPath id="clip0_1518_487">
<rect width="394" height="81" fill="white"/>
</clipPath>
</defs>
</svg>
