<svg xmlns="http://www.w3.org/2000/svg" xmlns:xlink="http://www.w3.org/1999/xlink" width="500" zoomAndPan="magnify" viewBox="0 0 375 374.999991" height="500" preserveAspectRatio="xMidYMid meet" version="1.0"><defs><g/><clipPath id="9af1704cca"><path d="M 37.5 207.234375 L 172.355469 207.234375 L 172.355469 217.691406 L 37.5 217.691406 Z M 37.5 207.234375 " clip-rule="nonzero"/></clipPath><clipPath id="8a03ea83dc"><path d="M 191.964844 158.972656 L 332.953125 158.972656 L 332.953125 169.421875 L 191.964844 169.421875 Z M 191.964844 158.972656 " clip-rule="nonzero"/></clipPath><clipPath id="b8cd2adb10"><path d="M 113.066406 157.273438 L 143 157.273438 L 143 192 L 113.066406 192 Z M 113.066406 157.273438 " clip-rule="nonzero"/></clipPath></defs><g clip-path="url(#9af1704cca)"><path fill="#e1f4f9" d="M 37.5 207.234375 L 172.347656 207.234375 L 172.347656 217.691406 L 37.5 217.691406 Z M 37.5 207.234375 " fill-opacity="1" fill-rule="nonzero"/></g><g clip-path="url(#8a03ea83dc)"><path fill="#ecfbed" d="M 191.964844 158.972656 L 332.964844 158.972656 L 332.964844 169.421875 L 191.964844 169.421875 Z M 191.964844 158.972656 " fill-opacity="1" fill-rule="nonzero"/></g><g fill="#242424" fill-opacity="1"><g transform="translate(39.406145, 187.729773)"><g><path d="M 13.375 0.578125 C 10.976562 0.578125 8.914062 0.179688 7.1875 -0.609375 C 5.46875 -1.398438 4.140625 -2.519531 3.203125 -3.96875 C 2.265625 -5.425781 1.796875 -7.132812 1.796875 -9.09375 L 8.15625 -9.09375 C 8.15625 -7.738281 8.625 -6.675781 9.5625 -5.90625 C 10.5 -5.144531 11.753906 -4.765625 13.328125 -4.765625 C 14.691406 -4.765625 15.765625 -5.03125 16.546875 -5.5625 C 17.335938 -6.09375 17.734375 -6.835938 17.734375 -7.796875 C 17.734375 -8.796875 17.257812 -9.609375 16.3125 -10.234375 C 15.363281 -10.859375 13.882812 -11.390625 11.875 -11.828125 C 8.519531 -12.535156 6.039062 -13.609375 4.4375 -15.046875 C 2.84375 -16.484375 2.046875 -18.359375 2.046875 -20.671875 C 2.046875 -23.285156 2.992188 -25.347656 4.890625 -26.859375 C 6.796875 -28.367188 9.394531 -29.125 12.6875 -29.125 C 14.9375 -29.125 16.890625 -28.734375 18.546875 -27.953125 C 20.210938 -27.179688 21.5 -26.09375 22.40625 -24.6875 C 23.320312 -23.289062 23.78125 -21.628906 23.78125 -19.703125 L 17.53125 -19.703125 C 17.53125 -20.972656 17.109375 -21.972656 16.265625 -22.703125 C 15.421875 -23.441406 14.253906 -23.8125 12.765625 -23.8125 C 11.398438 -23.8125 10.320312 -23.546875 9.53125 -23.015625 C 8.75 -22.484375 8.359375 -21.742188 8.359375 -20.796875 C 8.359375 -19.929688 8.789062 -19.195312 9.65625 -18.59375 C 10.53125 -18 12.054688 -17.441406 14.234375 -16.921875 C 17.796875 -16.078125 20.363281 -14.945312 21.9375 -13.53125 C 23.519531 -12.125 24.3125 -10.289062 24.3125 -8.03125 C 24.3125 -5.34375 23.335938 -3.234375 21.390625 -1.703125 C 19.441406 -0.179688 16.769531 0.578125 13.375 0.578125 Z M 13.375 0.578125 "/></g></g></g><g fill="#242424" fill-opacity="1"><g transform="translate(73.989977, 187.729773)"><g><path d="M 3.421875 0 L 3.421875 -28.546875 L 8.9375 -28.546875 L 21.53125 -11.171875 L 21.53125 -28.546875 L 27.96875 -28.546875 L 27.96875 0 L 22.46875 0 L 9.875 -17.5 L 9.875 0 Z M 3.421875 0 "/></g></g></g><g fill="#242424" fill-opacity="1"><g transform="translate(113.836405, 187.729773)"><g/></g></g><g fill="#242424" fill-opacity="1"><g transform="translate(131.86281, 187.729773)"><g/></g></g><g fill="#242424" fill-opacity="1"><g transform="translate(149.898457, 187.729773)"><g><path d="M 3.421875 0 L 3.421875 -28.546875 L 14.59375 -28.546875 C 16.90625 -28.546875 18.90625 -28.125 20.59375 -27.28125 C 22.28125 -26.4375 23.59375 -25.238281 24.53125 -23.6875 C 25.46875 -22.144531 25.9375 -20.328125 25.9375 -18.234375 C 25.9375 -16.160156 25.46875 -14.347656 24.53125 -12.796875 C 23.59375 -11.253906 22.28125 -10.0625 20.59375 -9.21875 C 18.90625 -8.375 16.90625 -7.953125 14.59375 -7.953125 L 9.90625 -7.953125 L 9.90625 0 Z M 9.875 -13.546875 L 14.0625 -13.546875 C 15.75 -13.546875 17.046875 -13.945312 17.953125 -14.75 C 18.867188 -15.550781 19.328125 -16.695312 19.328125 -18.1875 C 19.328125 -19.6875 18.867188 -20.84375 17.953125 -21.65625 C 17.046875 -22.46875 15.75 -22.875 14.0625 -22.875 L 9.875 -22.875 Z M 9.875 -13.546875 "/></g></g></g><g fill="#242424" fill-opacity="1"><g transform="translate(186.994102, 215.696408)"><g><path d="M 3.421875 0 L 3.421875 -28.546875 L 21.328125 -28.546875 L 21.328125 -22.671875 L 9.90625 -22.671875 L 9.90625 -15.53125 L 20.265625 -15.53125 L 20.265625 -9.828125 L 9.90625 -9.828125 L 9.90625 0 Z M 3.421875 0 "/></g></g></g><g fill="#242424" fill-opacity="1"><g transform="translate(218.560079, 215.696408)"><g><path d="M 16.96875 0.578125 C 14 0.578125 11.363281 -0.0507812 9.0625 -1.3125 C 6.769531 -2.582031 4.976562 -4.332031 3.6875 -6.5625 C 2.394531 -8.789062 1.75 -11.363281 1.75 -14.28125 C 1.75 -17.1875 2.394531 -19.753906 3.6875 -21.984375 C 4.976562 -24.210938 6.769531 -25.957031 9.0625 -27.21875 C 11.363281 -28.488281 14 -29.125 16.96875 -29.125 C 19.957031 -29.125 22.59375 -28.488281 24.875 -27.21875 C 27.15625 -25.957031 28.945312 -24.210938 30.25 -21.984375 C 31.5625 -19.753906 32.21875 -17.1875 32.21875 -14.28125 C 32.21875 -11.363281 31.5625 -8.789062 30.25 -6.5625 C 28.945312 -4.332031 27.15625 -2.582031 24.875 -1.3125 C 22.59375 -0.0507812 19.957031 0.578125 16.96875 0.578125 Z M 8.359375 -14.28125 C 8.359375 -12.5625 8.722656 -11.050781 9.453125 -9.75 C 10.191406 -8.445312 11.207031 -7.425781 12.5 -6.6875 C 13.789062 -5.957031 15.28125 -5.59375 16.96875 -5.59375 C 18.675781 -5.59375 20.175781 -5.957031 21.46875 -6.6875 C 22.757812 -7.425781 23.765625 -8.445312 24.484375 -9.75 C 25.203125 -11.050781 25.5625 -12.5625 25.5625 -14.28125 C 25.5625 -15.988281 25.203125 -17.492188 24.484375 -18.796875 C 23.765625 -20.097656 22.757812 -21.113281 21.46875 -21.84375 C 20.175781 -22.582031 18.675781 -22.953125 16.96875 -22.953125 C 15.28125 -22.953125 13.789062 -22.582031 12.5 -21.84375 C 11.207031 -21.113281 10.191406 -20.097656 9.453125 -18.796875 C 8.722656 -17.492188 8.359375 -15.988281 8.359375 -14.28125 Z M 8.359375 -14.28125 "/></g></g></g><g fill="#242424" fill-opacity="1"><g transform="translate(260.974024, 215.696408)"><g><path d="M 3.421875 0 L 3.421875 -28.546875 L 15.625 -28.546875 C 17.789062 -28.546875 19.675781 -28.148438 21.28125 -27.359375 C 22.882812 -26.578125 24.117188 -25.453125 24.984375 -23.984375 C 25.859375 -22.515625 26.296875 -20.757812 26.296875 -18.71875 C 26.296875 -16.625 25.820312 -14.820312 24.875 -13.3125 C 23.925781 -11.800781 22.59375 -10.664062 20.875 -9.90625 L 26.796875 0 L 19.296875 0 L 14.1875 -8.890625 L 9.90625 -8.890625 L 9.90625 0 Z M 9.828125 -14.359375 L 14.765625 -14.359375 C 16.367188 -14.359375 17.597656 -14.726562 18.453125 -15.46875 C 19.304688 -16.21875 19.734375 -17.285156 19.734375 -18.671875 C 19.734375 -20.054688 19.304688 -21.125 18.453125 -21.875 C 17.597656 -22.625 16.367188 -23 14.765625 -23 L 9.828125 -23 Z M 9.828125 -14.359375 "/></g></g></g><g fill="#242424" fill-opacity="1"><g transform="translate(298.12711, 215.696408)"><g><path d="M 3.421875 0 L 3.421875 -28.546875 L 8.9375 -28.546875 L 19.078125 -13.75 L 29.203125 -28.546875 L 34.671875 -28.546875 L 34.671875 0 L 28.21875 0 L 28.21875 -17.171875 L 21.28125 -7.0625 L 16.796875 -7.0625 L 9.875 -17.203125 L 9.875 0 Z M 3.421875 0 "/></g></g></g><g clip-path="url(#b8cd2adb10)"><path fill="#242424" d="M 125.589844 157.5 C 125.183594 157.507812 124.855469 157.84375 124.863281 158.25 L 124.863281 162.671875 C 124.859375 162.9375 124.996094 163.183594 125.226562 163.320312 C 125.457031 163.453125 125.742188 163.453125 125.972656 163.320312 C 126.203125 163.183594 126.339844 162.9375 126.335938 162.671875 L 126.335938 158.25 C 126.339844 158.050781 126.261719 157.855469 126.121094 157.714844 C 125.980469 157.574219 125.785156 157.496094 125.589844 157.5 Z M 118.957031 159.71875 C 118.65625 159.71875 118.390625 159.898438 118.273438 160.175781 C 118.160156 160.453125 118.226562 160.769531 118.445312 160.980469 L 121.394531 163.929688 C 121.578125 164.121094 121.851562 164.199219 122.109375 164.132812 C 122.367188 164.066406 122.570312 163.863281 122.636719 163.605469 C 122.707031 163.347656 122.628906 163.070312 122.433594 162.886719 L 119.488281 159.9375 C 119.347656 159.792969 119.15625 159.71875 118.957031 159.71875 Z M 132.21875 159.71875 C 132.027344 159.71875 131.84375 159.800781 131.710938 159.9375 L 128.765625 162.886719 C 128.570312 163.070312 128.492188 163.347656 128.5625 163.605469 C 128.628906 163.863281 128.832031 164.066406 129.089844 164.132812 C 129.347656 164.199219 129.621094 164.121094 129.804688 163.929688 L 132.753906 160.980469 C 132.972656 160.769531 133.039062 160.445312 132.917969 160.167969 C 132.800781 159.882812 132.523438 159.707031 132.21875 159.71875 Z M 139.730469 161.195312 C 139.199219 161.195312 138.664062 161.402344 138.257812 161.808594 L 124.125 175.941406 C 124.125 175.941406 121.96875 171.882812 120.886719 170.800781 C 119.003906 168.914062 115.355469 167.992188 114.390625 168.953125 L 113.066406 170.277344 L 117.238281 174.445312 L 120.441406 184.046875 L 126.226562 189.835938 C 128.324219 191.933594 131.722656 191.933594 133.816406 189.835938 L 141.945312 181.710938 C 142.757812 180.894531 142.757812 179.578125 141.945312 178.761719 C 141.128906 177.945312 139.808594 177.945312 138.996094 178.761719 L 139.730469 178.023438 C 140.546875 177.210938 140.546875 175.890625 139.730469 175.078125 C 138.917969 174.261719 137.597656 174.261719 136.785156 175.078125 L 137.519531 174.339844 C 138.335938 173.523438 138.335938 172.207031 137.519531 171.390625 C 136.707031 170.574219 135.386719 170.574219 134.570312 171.390625 L 141.207031 164.757812 C 142.019531 163.941406 142.019531 162.621094 141.207031 161.808594 C 140.800781 161.402344 140.265625 161.195312 139.730469 161.195312 Z M 139.730469 161.195312 " fill-opacity="1" fill-rule="nonzero"/></g></svg>